<?xml version="1.0" encoding="iso-8859-1"?>
<!-- Uploaded to: SVG Repo, www.svgrepo.com, Generator: SVG Repo Mixer Tools -->
<svg height="800px" width="800px" version="1.1" id="Layer_1" xmlns="http://www.w3.org/2000/svg" xmlns:xlink="http://www.w3.org/1999/xlink" 
	 viewBox="0 0 512 512" xml:space="preserve">
<path style="fill:#FFC1A6;" d="M134.794,8.152v231.542c57.94,0,104.9-46.961,104.9-104.9v-21.741
	C239.694,55.123,192.734,8.152,134.794,8.152z"/>
<path style="fill:#FFDBCC;" d="M134.794,8.152c39.927,0,72.289,46.971,72.289,104.9v21.741c0,57.94-32.362,104.9-72.289,104.9
	c-57.94,0-104.9-46.961-104.9-104.9v-21.741C29.893,55.123,76.854,8.152,134.794,8.152z"/>
<path style="fill:#FFC1A6;" d="M377.206,8.152v231.542c57.94,0,104.9-46.961,104.9-104.9v-21.741
	C482.107,55.123,435.146,8.152,377.206,8.152z"/>
<path style="fill:#FFDBCC;" d="M377.206,8.152c39.927,0,72.289,46.971,72.289,104.9v21.741c0,57.94-32.362,104.9-72.289,104.9
	c-57.94,0-104.9-46.961-104.9-104.9v-21.741C272.306,55.123,319.266,8.152,377.206,8.152z"/>
<path style="fill:#FFC1A6;" d="M134.794,272.304v231.542c57.94,0,104.9-46.961,104.9-104.9v-21.741
	C239.694,319.276,192.734,272.304,134.794,272.304z"/>
<path style="fill:#FFDBCC;" d="M134.794,272.304c39.927,0,72.289,46.971,72.289,104.9v21.741c0,57.94-32.362,104.9-72.289,104.9
	c-57.94,0-104.9-46.961-104.9-104.9v-21.741C29.893,319.276,76.854,272.304,134.794,272.304z"/>
<path style="fill:#FFC1A6;" d="M377.206,272.304v231.542c57.94,0,104.9-46.961,104.9-104.9v-21.741
	C482.107,319.276,435.146,272.304,377.206,272.304z"/>
<path style="fill:#FFDBCC;" d="M377.206,272.304c39.927,0,72.289,46.971,72.289,104.9v21.741c0,57.94-32.362,104.9-72.289,104.9
	c-57.94,0-104.9-46.961-104.9-104.9v-21.741C272.306,319.276,319.266,272.304,377.206,272.304z"/>
<path style="fill:#FE5F1A;" d="M377.206,405.269c-12.008,0-21.741,9.733-21.741,21.741v10.871c0,12.008,9.733,21.741,21.741,21.741
	c12.008,0,21.741-9.733,21.741-21.741V427.01C398.947,415.004,389.213,405.269,377.206,405.269z"/>
<path d="M175.015,98.577c-4.504,0-8.153,3.65-8.153,8.153v16.306c0,4.503,3.649,8.153,8.153,8.153c4.504,0,8.153-3.65,8.153-8.153
	V106.73C183.168,102.227,179.517,98.577,175.015,98.577z"/>
<path d="M94.573,98.577c-4.504,0-8.153,3.65-8.153,8.153v16.306c0,4.503,3.649,8.153,8.153,8.153c4.504,0,8.153-3.65,8.153-8.153
	V106.73C102.726,102.227,99.075,98.577,94.573,98.577z"/>
<path d="M153.141,153.189c-4.357-1.127-8.807,1.491-9.936,5.851c-0.996,3.848-4.456,6.535-8.413,6.535
	c-3.957,0-7.417-2.687-8.413-6.535c-1.128-4.358-5.572-6.98-9.936-5.851c-4.36,1.128-6.979,5.577-5.851,9.936
	c2.858,11.043,12.809,18.756,24.199,18.756c11.39,0,21.341-7.713,24.199-18.756C160.12,158.766,157.501,154.318,153.141,153.189z"/>
<path d="M134.794,0C72.456,0,21.74,50.715,21.74,113.053v21.741c0,62.338,50.715,113.053,113.053,113.053
	s113.053-50.715,113.053-113.053v-21.741C247.847,50.715,197.131,0,134.794,0z M231.541,134.794
	c0,53.347-43.401,96.748-96.748,96.748s-96.748-43.401-96.748-96.748v-21.741c0-53.347,43.401-96.748,96.748-96.748
	s96.748,43.401,96.748,96.748V134.794z"/>
<path d="M417.427,98.577c-4.504,0-8.153,3.65-8.153,8.153v16.306c0,4.503,3.649,8.153,8.153,8.153s8.153-3.65,8.153-8.153V106.73
	C425.58,102.227,421.93,98.577,417.427,98.577z"/>
<path d="M336.985,98.577c-4.504,0-8.153,3.65-8.153,8.153v16.306c0,4.503,3.649,8.153,8.153,8.153s8.153-3.65,8.153-8.153V106.73
	C345.138,102.227,341.488,98.577,336.985,98.577z"/>
<path d="M393.512,152.93H360.9c-4.504,0-8.153,3.65-8.153,8.153s3.649,8.153,8.153,8.153h32.612c4.504,0,8.153-3.65,8.153-8.153
	S398.015,152.93,393.512,152.93z"/>
<path d="M377.206,0c-62.338,0-113.053,50.715-113.053,113.053v21.741c0,62.338,50.715,113.053,113.053,113.053
	S490.26,197.132,490.26,134.794v-21.741C490.26,50.715,439.543,0,377.206,0z M473.954,134.794c0,53.347-43.401,96.748-96.748,96.748
	s-96.748-43.401-96.748-96.748v-21.741c0-53.347,43.401-96.748,96.748-96.748s96.748,43.401,96.748,96.748V134.794z"/>
<path d="M175.015,362.73c-4.504,0-8.153,3.65-8.153,8.153v16.306c0,4.503,3.649,8.153,8.153,8.153c4.504,0,8.153-3.65,8.153-8.153
	v-16.306C183.168,366.381,179.517,362.73,175.015,362.73z"/>
<path d="M94.573,362.73c-4.504,0-8.153,3.65-8.153,8.153v16.306c0,4.503,3.649,8.153,8.153,8.153c4.504,0,8.153-3.65,8.153-8.153
	v-16.306C102.726,366.381,99.075,362.73,94.573,362.73z"/>
<path d="M134.794,417.083c-11.39,0-21.341,7.713-24.199,18.755c-1.128,4.359,1.49,8.808,5.851,9.936
	c4.357,1.127,8.807-1.491,9.936-5.849c0.996-3.848,4.456-6.535,8.413-6.535s7.417,2.687,8.413,6.535
	c0.951,3.674,4.26,6.112,7.888,6.112c0.675,0,1.363-0.085,2.048-0.262c4.36-1.128,6.979-5.577,5.851-9.936
	C156.134,424.796,146.183,417.083,134.794,417.083z"/>
<path d="M134.794,264.152c-62.338,0-113.053,50.715-113.053,113.053v21.741C21.74,461.285,72.456,512,134.794,512
	s113.053-50.715,113.053-113.053v-21.741C247.847,314.868,197.131,264.152,134.794,264.152z M231.541,398.947
	c0,53.347-43.401,96.748-96.748,96.748s-96.748-43.401-96.748-96.748v-21.741c0-53.347,43.401-96.748,96.748-96.748
	s96.748,43.401,96.748,96.748V398.947z"/>
<path d="M417.427,362.73c-4.504,0-8.153,3.65-8.153,8.153v16.306c0,4.503,3.649,8.153,8.153,8.153s8.153-3.65,8.153-8.153v-16.306
	C425.58,366.381,421.93,362.73,417.427,362.73z"/>
<path d="M336.985,362.73c-4.504,0-8.153,3.65-8.153,8.153v16.306c0,4.503,3.649,8.153,8.153,8.153s8.153-3.65,8.153-8.153v-16.306
	C345.138,366.381,341.488,362.73,336.985,362.73z"/>
<path d="M377.206,397.116c-16.483,0-29.894,13.41-29.894,29.894v10.871c0,16.484,13.411,29.894,29.894,29.894
	s29.894-13.41,29.894-29.894V427.01C407.1,410.527,393.689,397.116,377.206,397.116z M390.794,437.881
	c0,7.493-6.095,13.588-13.588,13.588s-13.588-6.095-13.588-13.588V427.01c0-7.493,6.095-13.588,13.588-13.588
	s13.588,6.095,13.588,13.588V437.881z"/>
<path d="M377.206,264.152c-62.338,0-113.053,50.715-113.053,113.053v21.741c0,62.338,50.715,113.053,113.053,113.053
	S490.26,461.285,490.26,398.947v-21.741C490.26,314.868,439.543,264.152,377.206,264.152z M473.954,398.947
	c0,53.347-43.401,96.748-96.748,96.748s-96.748-43.401-96.748-96.748v-21.741c0-53.347,43.401-96.748,96.748-96.748
	s96.748,43.401,96.748,96.748V398.947z"/>
</svg>